<svg width="24" xmlns="http://www.w3.org/2000/svg" height="24" id="screenshot-207ec093-f2d4-8027-8006-41654ba37519" viewBox="0 0 24 24" xmlns:xlink="http://www.w3.org/1999/xlink" fill="none" version="1.1"><g id="shape-207ec093-f2d4-8027-8006-41654ba37519" rx="0" ry="0" style="fill: rgb(0, 0, 0);"><g id="shape-207ec093-f2d4-8027-8006-41654ba44583" style="display: none;"><g class="fills" id="fills-207ec093-f2d4-8027-8006-41654ba44583"><rect width="24" height="24" x="0" transform="matrix(1.000000, 0.000000, 0.000000, 1.000000, 0.000000, 0.000000)" style="fill: none;" ry="0" fill="none" rx="0" y="0"/></g></g><g id="shape-207ec093-f2d4-8027-8006-41654ba54603"><g class="fills" id="fills-207ec093-f2d4-8027-8006-41654ba54603"><path d="M12.000,21.000C11.734,21.002,11.479,20.897,11.290,20.710L3.520,12.930C1.492,10.880,1.492,7.580,3.520,5.530C5.565,3.491,8.875,3.491,10.920,5.530L12.000,6.610L13.080,5.530C15.125,3.491,18.435,3.491,20.480,5.530C22.508,7.580,22.508,10.880,20.480,12.930L12.710,20.710C12.521,20.897,12.266,21.002,12.000,21.000ZZ" style="fill: rgb(102, 178, 178); fill-opacity: 1;"/></g></g></g></svg>