<svg width="24" xmlns="http://www.w3.org/2000/svg" height="24" id="screenshot-207ec093-f2d4-8027-8006-4165443027c2" viewBox="0 0 24 24" xmlns:xlink="http://www.w3.org/1999/xlink" fill="none" version="1.1"><g id="shape-207ec093-f2d4-8027-8006-4165443027c2" rx="0" ry="0" style="fill: rgb(0, 0, 0);"><g id="shape-207ec093-f2d4-8027-8006-416544327dad" style="display: none;"><g class="fills" id="fills-207ec093-f2d4-8027-8006-416544327dad"><rect width="24" height="24" x="0" transform="matrix(1.000000, 0.000000, 0.000000, 1.000000, 0.000000, 0.000000)" style="fill: none;" ry="0" fill="none" rx="0" y="0"/></g></g><g id="shape-207ec093-f2d4-8027-8006-41654434cffb"><g class="fills" id="fills-207ec093-f2d4-8027-8006-41654434cffb"><path d="M12.000,21.000C11.734,21.002,11.479,20.897,11.290,20.710L3.520,12.930C1.492,10.880,1.492,7.580,3.520,5.530C5.565,3.491,8.875,3.491,10.920,5.530L12.000,6.610L13.080,5.530C15.125,3.491,18.435,3.491,20.480,5.530C22.508,7.580,22.508,10.880,20.480,12.930L12.710,20.710C12.521,20.897,12.266,21.002,12.000,21.000ZZM7.220,6.000C6.365,5.996,5.544,6.335,4.940,6.940C3.683,8.204,3.683,10.246,4.940,11.510L12.000,18.580L19.060,11.510C20.317,10.246,20.317,8.204,19.060,6.940C17.780,5.731,15.780,5.731,14.500,6.940L12.710,8.740C12.522,8.929,12.267,9.036,12.000,9.036C11.733,9.036,11.478,8.929,11.290,8.740L9.500,6.940C8.896,6.335,8.075,5.996,7.220,6.000ZZ" style="fill: rgb(102, 178, 178); fill-opacity: 1;"/></g></g></g></svg>